<svg width="1414" height="322" viewBox="0 0 1414 322" fill="none" xmlns="http://www.w3.org/2000/svg">
<path d="M112.955 97.1818L52.5 236.5H25.9091L86.3636 97.1818H112.955ZM178.892 97.1818L118.438 236.5H91.8466L152.301 97.1818H178.892Z" fill="#F65F4A"/>
<path d="M200.935 234H172.81L248.165 88.5455H280.693L307.824 234H279.699L260.168 118.375H259.031L200.935 234ZM211.304 176.969H288.009L284.457 198.134H207.753L211.304 176.969ZM421.016 129.241C421.206 122.66 419.193 117.617 414.979 114.114C410.813 110.61 404.823 108.858 397.011 108.858C391.518 108.858 386.665 109.687 382.451 111.344C378.284 112.954 374.923 115.203 372.366 118.091C369.809 120.932 368.223 124.175 367.607 127.821C367.086 130.804 367.347 133.408 368.388 135.634C369.43 137.859 371.016 139.753 373.147 141.315C375.325 142.878 377.787 144.18 380.533 145.222C383.327 146.263 386.168 147.139 389.056 147.849L402.124 151.259C407.333 152.537 412.304 154.265 417.039 156.443C421.774 158.574 425.87 161.32 429.326 164.682C432.83 167.996 435.387 171.997 436.996 176.685C438.606 181.372 438.867 186.865 437.778 193.162C436.357 201.685 432.924 209.189 427.479 215.676C422.082 222.116 414.979 227.158 406.173 230.804C397.413 234.402 387.21 236.202 375.562 236.202C364.293 236.202 354.776 234.45 347.011 230.946C339.246 227.395 333.564 222.258 329.965 215.534C326.414 208.811 325.278 200.643 326.556 191.031H352.479C351.959 196.098 352.787 200.312 354.965 203.673C357.191 207.035 360.387 209.545 364.553 211.202C368.72 212.859 373.549 213.688 379.042 213.688C384.771 213.688 389.956 212.835 394.596 211.131C399.236 209.379 403.024 206.964 405.96 203.886C408.942 200.761 410.765 197.116 411.428 192.949C412.091 189.208 411.547 186.083 409.795 183.574C408.043 181.064 405.32 178.981 401.627 177.324C397.981 175.619 393.625 174.104 388.559 172.778L372.792 168.517C361.381 165.392 352.716 160.705 346.798 154.455C340.926 148.205 338.843 139.871 340.548 129.455C341.968 120.837 345.543 113.332 351.272 106.94C357.001 100.501 364.174 95.5057 372.792 91.9545C381.409 88.3561 390.832 86.5568 401.059 86.5568C411.381 86.5568 420.117 88.3561 427.266 91.9545C434.463 95.553 439.719 100.572 443.033 107.011C446.395 113.403 447.508 120.813 446.371 129.241H421.016ZM550.899 129.241C551.089 122.66 549.076 117.617 544.862 114.114C540.696 110.61 534.706 108.858 526.893 108.858C521.401 108.858 516.548 109.687 512.334 111.344C508.167 112.954 504.805 115.203 502.249 118.091C499.692 120.932 498.106 124.175 497.49 127.821C496.969 130.804 497.23 133.408 498.271 135.634C499.313 137.859 500.899 139.753 503.03 141.315C505.208 142.878 507.67 144.18 510.416 145.222C513.21 146.263 516.051 147.139 518.939 147.849L532.007 151.259C537.215 152.537 542.187 154.265 546.922 156.443C551.657 158.574 555.752 161.32 559.209 164.682C562.713 167.996 565.269 171.997 566.879 176.685C568.489 181.372 568.75 186.865 567.661 193.162C566.24 201.685 562.807 209.189 557.362 215.676C551.964 222.116 544.862 227.158 536.055 230.804C527.296 234.402 517.092 236.202 505.445 236.202C494.176 236.202 484.659 234.45 476.893 230.946C469.128 227.395 463.446 222.258 459.848 215.534C456.297 208.811 455.161 200.643 456.439 191.031H482.362C481.841 196.098 482.67 200.312 484.848 203.673C487.073 207.035 490.269 209.545 494.436 211.202C498.603 212.859 503.432 213.688 508.925 213.688C514.654 213.688 519.839 212.835 524.479 211.131C529.119 209.379 532.907 206.964 535.842 203.886C538.825 200.761 540.648 197.116 541.311 192.949C541.974 189.208 541.429 186.083 539.678 183.574C537.926 181.064 535.203 178.981 531.51 177.324C527.864 175.619 523.508 174.104 518.442 172.778L502.675 168.517C491.264 165.392 482.599 160.705 476.68 154.455C470.809 148.205 468.726 139.871 470.43 129.455C471.851 120.837 475.426 113.332 481.155 106.94C486.884 100.501 494.057 95.5057 502.675 91.9545C511.292 88.3561 520.714 86.5568 530.942 86.5568C541.264 86.5568 550 88.3561 557.149 91.9545C564.346 95.553 569.602 100.572 572.916 107.011C576.278 113.403 577.391 120.813 576.254 129.241H550.899ZM584.404 234L608.552 88.5455H703.154L699.461 110.634H631.208L624.674 150.122H688.026L684.333 172.21H620.981L614.447 211.912H683.268L679.575 234H584.404ZM730.036 88.5455H762.281L788.062 193.943H789.766L850.349 88.5455H882.593L858.445 234H833.161L849.781 134.071H848.502L791.684 233.574H772.863L749.283 133.858H747.934L731.173 234H705.888L730.036 88.5455ZM887.138 234L911.286 88.5455H966.968C977.479 88.5455 985.955 90.2026 992.394 93.517C998.834 96.7841 1003.31 101.259 1005.82 106.94C1008.37 112.622 1009.04 119.062 1007.81 126.259C1006.81 132.13 1004.82 137.172 1001.84 141.386C998.905 145.553 995.306 148.962 991.045 151.614C986.783 154.218 982.214 156.088 977.337 157.224L977.053 158.645C982.167 158.882 986.854 160.444 991.116 163.332C995.377 166.221 998.597 170.293 1000.77 175.548C1002.95 180.757 1003.45 187.03 1002.27 194.369C1000.99 201.898 998.029 208.669 993.388 214.682C988.748 220.648 982.451 225.359 974.496 228.815C966.589 232.272 957.096 234 946.016 234H887.138ZM917.181 211.983H945.519C955.036 211.983 962.233 210.16 967.11 206.514C971.987 202.821 974.899 198.086 975.846 192.31C976.556 188.001 976.13 184.118 974.567 180.662C973.005 177.158 970.424 174.412 966.826 172.423C963.228 170.387 958.729 169.369 953.332 169.369H924.212L917.181 211.983ZM927.479 150.406H953.545C958.09 150.406 962.304 149.578 966.187 147.92C970.117 146.216 973.384 143.825 975.988 140.747C978.639 137.622 980.273 133.929 980.888 129.668C981.883 124.033 980.699 119.393 977.337 115.747C973.976 112.101 968.436 110.278 960.718 110.278H934.013L927.479 150.406ZM1018.58 234L1042.73 88.5455H1069.08L1048.63 211.912H1112.69L1109 234H1018.58ZM1131.87 234L1156.01 88.5455H1250.62L1246.92 110.634H1178.67L1172.13 150.122H1235.49L1231.79 172.21H1168.44L1161.91 211.912H1230.73L1227.04 234H1131.87ZM1253.35 234L1277.5 88.5455H1332.04C1343.22 88.5455 1352.28 90.4867 1359.24 94.3693C1366.2 98.2519 1371.06 103.697 1373.8 110.705C1376.55 117.665 1377.14 125.785 1375.58 135.065C1374.06 144.346 1370.75 152.419 1365.64 159.284C1360.57 166.102 1353.87 171.382 1345.54 175.122C1337.25 178.863 1327.52 180.733 1316.35 180.733H1277.5L1281.19 158.858H1316.56C1323.09 158.858 1328.59 157.958 1333.04 156.159C1337.49 154.312 1340.99 151.637 1343.55 148.134C1346.15 144.582 1347.88 140.226 1348.73 135.065C1349.54 129.904 1349.23 125.501 1347.81 121.855C1346.44 118.162 1343.81 115.368 1339.93 113.474C1336.09 111.533 1330.91 110.562 1324.37 110.562H1300.22L1279.7 234H1253.35ZM1339.43 168.091L1364.5 234H1335.1L1310.66 168.091H1339.43Z" fill="black"/>
</svg>
